<svg aria-hidden="true" style="position: absolute; width: 0; height: 0; overflow: hidden;" version="1.1" xmlns="http://www.w3.org/2000/svg" xmlns:xlink="http://www.w3.org/1999/xlink">
<defs>
<symbol id="icon-search" viewBox="0 0 32 32">
<path d="M31.008 27.231l-7.58-6.447c-0.784-0.705-1.622-1.029-2.299-0.998 1.789-2.096 2.87-4.815 2.87-7.787 0-6.627-5.373-12-12-12s-12 5.373-12 12 5.373 12 12 12c2.972 0 5.691-1.081 7.787-2.87-0.031 0.677 0.293 1.515 0.998 2.299l6.447 7.58c1.104 1.226 2.907 1.33 4.007 0.23s0.997-2.903-0.23-4.007zM12 20c-4.418 0-8-3.582-8-8s3.582-8 8-8 8 3.582 8 8-3.582 8-8 8z"></path>
</symbol>
<symbol id="country-search" viewBox="0 0 13 8">
<path d="M6.5 8L0.00480968 0.5L12.9952 0.499999L6.5 8Z" fill="#939393"></path>
</symbol>
<symbol id="search-icon" >
<path d="M1.509 1.50905C2.48213.53592 3.77595 0 5.15213 0c1.37618 0 2.67.53592 3.6431 1.50905.9731.9731 1.50907 2.26692 1.50907 3.64308 0 1.25819-.44824 2.44736-1.26874 3.38573l2.86134 2.86134c.1374.1374.1374.3603 0 .4977-.0687.0687-.1588.1031-.2489.1031-.09 0-.1801-.0344-.2488-.1031L8.53786 9.03558c-.93837.82048-2.12754 1.26872-3.38573 1.26872-1.37621 0-2.66998-.53592-3.64311-1.50905C.53592 7.82215 0 6.52833 0 5.15215c0-1.37618.5359-2.67 1.509-3.6431zm.49772 6.7885c1.7344 1.73435 4.55639 1.73435 6.29079 0 1.73439-1.73437 1.73439-4.55641 0-6.29078C7.43023 1.13948 6.29135.70598 5.1521.70598c-1.13897 0-2.27831.43372-3.1454 1.30079C.27237 3.74112.27237 6.56316 2.00672 8.29755z" fill="#939393"></path>
</symbol>
<symbol id="clear-search" viewBox="0 0 25 25">
<path d="M1.286 25a1.286 1.286 0 01-.909-2.196L22.804.377a1.286 1.286 0 111.82 1.819L2.195 24.623a1.29 1.29 0 01-.91.377z" fill="#939393"></path>
<path d="M23.715 25c-.33 0-.659-.125-.91-.377L.378 2.196A1.286 1.286 0 012.196.376l22.427 22.428A1.286 1.286 0 0123.715 25z" fill="#939393"></path>
</symbol>
<symbol id="moon" viewBox="0 0 32 32">
<path  d="M17.701 32a15.97 15.97 0 0012.429-5.925c.442-.544-.04-1.339-.723-1.209-7.763 1.478-14.891-4.474-14.891-12.31 0-4.514 2.416-8.665 6.344-10.9.605-.345.453-1.262-.235-1.389-.879-.17-1.89-.267-2.923-.268-8.832 0-16 7.157-16 16 0 8.832 7.157 16 16 16z"></path>
</symbol>
<symbol id="sun" viewBox="0 0 32 32">
<path  d="M16 10c-3.306 0-6 2.694-6 6s2.694 6 6 6 6-2.694 6-6-2.694-6-6-6zm15.4 5.031l-5.919-2.956L27.575 5.8c.281-.85-.525-1.656-1.369-1.369l-6.275 2.094L16.969.6c-.4-.8-1.537-.8-1.938 0l-2.956 5.919-6.281-2.094c-.85-.281-1.656.525-1.369 1.369l2.094 6.275L.6 15.032c-.8.4-.8 1.538 0 1.938l5.919 2.956-2.094 6.281c-.281.85.525 1.656 1.369 1.369l6.275-2.094 2.956 5.919c.4.8 1.538.8 1.938 0l2.956-5.919 6.275 2.094c.85.281 1.656-.525 1.369-1.369l-2.094-6.275 5.919-2.956c.813-.406.813-1.544.012-1.944zm-9.744 6.625c-3.119 3.119-8.194 3.119-11.313 0s-3.119-8.194 0-11.313c3.119-3.119 8.194-3.119 11.313 0s3.119 8.194 0 11.313z"></path>
</symbol>
</defs>
</svg>